<?xml version="1.0" encoding="UTF-8" standalone="no"?>
<!DOCTYPE svg PUBLIC "-//W3C//DTD SVG 1.1//EN" "http://www.w3.org/Graphics/SVG/1.1/DTD/svg11.dtd">
<svg width="100%" height="100%" viewBox="0 0 80 80" version="1.1" xmlns="http://www.w3.org/2000/svg" xmlns:xlink="http://www.w3.org/1999/xlink" xml:space="preserve" xmlns:serif="http://www.serif.com/" style="fill-rule:evenodd;clip-rule:evenodd;stroke-linejoin:round;stroke-miterlimit:2;">
    <g transform="matrix(0.83012,0,0,0.83012,-135.4,-247.7)">
        <path d="M259.55,385.57C259.55,390.715 255.381,394.888 250.232,394.888L172.492,394.888C167.348,394.888 163.174,390.714 163.174,385.57L163.174,307.83C163.174,302.685 167.348,298.512 172.492,298.512L250.232,298.512C255.381,298.512 259.55,302.685 259.55,307.83L259.55,385.57" style="fill:white;fill-rule:nonzero;"/>
        <g>
            <path d="M202.45,366.03C199.346,366.03 196.909,365.625 195.139,364.817C193.369,364.008 192.1,362.905 191.336,361.504C190.57,360.106 190.199,358.504 190.221,356.686C190.242,354.872 190.493,352.938 190.975,350.883L199.302,316.066L209.466,314.493L200.352,352.261C200.177,353.047 200.079,353.769 200.057,354.424C200.034,355.079 200.155,355.659 200.417,356.161C200.679,356.665 201.127,357.069 201.761,357.374C202.394,357.681 203.28,357.878 204.417,357.965L202.45,366.025" style="fill-rule:nonzero;"/>
            <path d="M239.16,344.33C239.16,347.52 238.635,350.438 237.586,353.083C236.537,355.729 235.083,358.012 233.226,359.935C231.368,361.86 229.139,363.356 226.538,364.426C223.937,365.496 221.106,366.033 218.048,366.033C216.561,366.033 215.075,365.901 213.589,365.638L210.638,377.507L200.934,377.507L211.818,332.137C213.566,331.613 215.566,331.143 217.817,330.727C220.069,330.312 222.506,330.105 225.129,330.105C227.577,330.105 229.687,330.476 231.456,331.219C233.227,331.962 234.68,332.979 235.817,334.268C236.953,335.558 237.794,337.066 238.34,338.792C238.886,340.518 239.16,342.366 239.16,344.334M215.358,357.776C216.101,357.951 217.019,358.038 218.112,358.038C219.816,358.038 221.368,357.722 222.767,357.087C224.165,356.454 225.357,355.569 226.341,354.432C227.323,353.296 228.088,351.931 228.635,350.334C229.181,348.739 229.454,346.98 229.454,345.056C229.454,343.177 229.038,341.581 228.209,340.269C227.378,338.958 225.936,338.302 223.882,338.302C222.482,338.302 221.171,338.433 219.947,338.696L215.358,357.776" style="fill-rule:nonzero;"/>
        </g>
    </g>
</svg>
