<?xml version="1.0" encoding="UTF-8" standalone="no"?>
<!DOCTYPE svg PUBLIC "-//W3C//DTD SVG 1.1//EN" "http://www.w3.org/Graphics/SVG/1.1/DTD/svg11.dtd">
<svg width="100%" height="100%" viewBox="0 0 3757 3757" version="1.1" xmlns="http://www.w3.org/2000/svg" xmlns:xlink="http://www.w3.org/1999/xlink" xml:space="preserve" xmlns:serif="http://www.serif.com/" style="fill-rule:evenodd;clip-rule:evenodd;stroke-linejoin:round;stroke-miterlimit:2;">
    <g transform="matrix(1,0,0,1,-371.96,-371.75)">
        <path d="M4128,2249.81C4128,3287 3287.26,4127.86 2250,4127.86C1212.74,4127.86 372,3287 372,2249.81C372,1212.62 1212.76,371.75 2250,371.75C3287.24,371.75 4128,1212.54 4128,2249.81Z" style="fill:white;fill-rule:nonzero;"/>
    </g>
    <g id="_149931032" transform="matrix(1,0,0,1,-371.96,-371.75)">
        <path d="M2250,371.75C1213.11,371.75 370.88,1213.81 372.2,2249.75C372.46,2457.01 405.51,2656.38 467.54,2842.87L1029.42,2842.87L1029.42,1263L2250,2483.57L3470.52,1263L3470.52,2842.9L4032.52,2842.9C4094.64,2656.42 4127.52,2457.05 4127.89,2249.78C4128.14,2101.9 4111.22,1958.02 4079.02,1819.99C3885.39,990.075 3139.13,372 2250,372L2250,371.75Z" style="fill:rgb(185,185,185);fill-rule:nonzero;"/>
    </g>
    <g id="_149931160" transform="matrix(1,0,0,1,-371.96,-371.75)">
        <path d="M1969.3,2764.17L1436.63,2231.47L1436.63,3225.61L1029.38,3225.61L645.09,3225.68C974.72,3766.48 1570.44,4128.24 2250,4128.24C2929.56,4128.24 3525.31,3766.4 3855,3225.6L3063.25,3225.6L3063.25,2231.47L2249.94,3044.78L1969.32,2764.17L1969.3,2764.17Z" style="fill:rgb(77,77,77);fill-rule:nonzero;"/>
    </g>
</svg>
