<svg xmlns="http://www.w3.org/2000/svg" xmlns:xlink="http://www.w3.org/1999/xlink" width="172" height="37" version="1.1" viewBox="634 20 172 37"><defs><polygon id="path-1" points="23.515 .278 .062 .278 .062 26.325 23.515 26.325 23.515 .278"/><polygon id="path-3" points="0 35.357 171.861 35.357 171.861 .278 0 .278"/></defs><g id="logo" fill="none" fill-rule="evenodd" stroke="none" stroke-width="1" transform="translate(634.000000, 20.000000)"><polygon id="Fill-1" fill="#F4F4F4" points="148.407 34.983 152.329 34.983 156.532 25.555 160.282 17.221 167.876 34.983 171.861 34.983 160.345 8.935"/><polygon id="Fill-2" fill="#F4F4F4" points="100.792 10.47 100.792 31.502 107.885 31.502 107.885 34.978 97.151 34.978 97.151 10.47"/><polygon id="Fill-3" fill="#F4F4F4" points="127.14 10.47 127.14 31.502 134.234 31.502 134.234 34.978 123.499 34.978 123.499 10.47"/><g id="Group-13" transform="translate(0.000000, 0.065565)"><path id="Fill-4" fill="#F4F4F4" d="M45.5462083,10.4043794 L45.5462083,26.2613984 C45.5462083,28.1559061 45.41611,29.5684625 45.1555756,30.4997543 C44.8953792,31.558056 44.4527073,32.4519313 43.8275599,33.1820668 C42.6086916,34.6320397 40.9937839,35.3566829 38.9838507,35.3566829 C37.4625462,35.3566829 36.0405894,34.9547136 34.7176424,34.1504318 L36.4991434,30.9916603 C37.3848251,31.5947859 38.212723,31.8965203 38.9838507,31.8965203 C40.0668762,31.8965203 40.817053,31.4787606 41.2337053,30.6425547 C41.6713084,29.806692 41.8899411,28.346421 41.8899411,26.2613984 L41.8899411,10.4043794 L45.5462083,10.4043794 Z"/><polygon id="Fill-6" fill="#F4F4F4" points="17.594 10.374 17.594 27.393 1.581 10.374 0 10.374 0 34.866 3.64 34.866 3.64 17.71 19.825 34.866 21.235 34.866 21.235 10.374"/><g id="Group-10" transform="translate(58.459725, 0.000000)"><mask id="mask-2" fill="#fff"><use xlink:href="#path-1"/></mask><polygon id="Fill-8" fill="#19D6AC" points="3.983 26.325 .062 26.325 11.999 .278 23.515 26.325 19.531 26.325 11.937 8.563 8.186 16.897" mask="url(#mask-2)"/></g><mask id="mask-4" fill="#fff"><use xlink:href="#path-3"/></mask><polygon id="Fill-11" fill="#F4F4F4" points="68.428 34.912 72.069 34.912 72.069 24.13 68.428 24.13" mask="url(#mask-4)"/></g></g></svg>